<svg width="55" height="55" viewBox="0 0 55 55" fill="none" xmlns="http://www.w3.org/2000/svg">
<g clip-path="url(#clip0_272_437)">
<path d="M54.9979 13.7862V0.00366211L41.1145 0.00366211V13.7862L54.9979 13.7862Z" fill="#38EF7D"/>
<path d="M50.3692 9.20035V4.59998L45.7352 4.59998V9.20035H50.3692Z" fill="#1E1E1E"/>
<path d="M50.3705 55.0022V50.4019H45.7365V55.0022H50.3705Z" fill="#1E1E1E"/>
<path d="M4.63553 9.19156L4.63553 4.59119L0.00148582 4.59119L0.00148582 9.19156H4.63553Z" fill="#1E1E1E"/>
<path d="M45.7413 13.7825V41.3383H13.9302V9.19142H43.5413V4.60034H13.9302H12.6383H9.30554V41.3383V45.9293H50.366V41.3383V13.7825H45.7413Z" fill="#1E1E1E"/>
<path d="M36.4545 22.9647H27.8136V27.5558H36.4545V36.738H41.0792V27.5558V22.9647H36.4545Z" fill="#1E1E1E"/>
<path fill-rule="evenodd" clip-rule="evenodd" d="M23.1949 36.7359V13.7805H18.5702V36.7359H23.1949ZM23.1985 36.7422H31.83V32.1511H23.1985V36.7422ZM41.0795 18.377H23.1986V13.7859H41.0795V18.377Z" fill="#1E1E1E"/>
<path d="M4.63405 50.4089V13.7825H0.0093689V54.9999H4.63405H41.0792V50.4089H4.63405Z" fill="#1E1E1E"/>
</g>
<defs>
<clipPath id="clip0_272_437">
<rect width="55" height="55" fill="white"/>
</clipPath>
</defs>
</svg>
