<svg width="178" height="178" viewBox="0 0 178 178" fill="none" xmlns="http://www.w3.org/2000/svg">
<g clip-path="url(#clip0_315_5200)">
<path d="M177.993 44.617V0.0117188L133.062 0.0117187V44.617L177.993 44.617Z" fill="#38EF7D"/>
<path d="M163.013 29.7757V14.8873L148.016 14.8873V29.7757L163.013 29.7757Z" fill="white"/>
<path d="M163.017 178.007V163.119H148.02V178.007H163.017Z" fill="white"/>
<path d="M15.0023 29.7472L15.0023 14.8587L0.00484943 14.8587L0.00484943 29.7472L15.0023 29.7472Z" fill="white"/>
<path d="M148.035 44.6053V133.786H45.0832V29.7469H140.915V14.8885H45.0832H40.9021H30.1161V133.786V148.644H163.003V133.786V44.6053H148.035Z" fill="white"/>
<path d="M117.98 74.3221H90.015V89.1805H117.98V118.897H132.947V89.1805V74.3221H117.98Z" fill="white"/>
<path fill-rule="evenodd" clip-rule="evenodd" d="M75.067 118.891V44.5986H60.0999V118.891H75.067ZM75.0788 118.911H103.013V104.053H75.0788V118.911ZM132.948 59.4746H75.0792V44.6162H132.948V59.4746Z" fill="white"/>
<path d="M14.9974 163.142V44.6053H0.0302963V178H14.9974H132.947V163.142H14.9974Z" fill="white"/>
</g>
<defs>
<clipPath id="clip0_315_5200">
<rect width="178" height="178" fill="white"/>
</clipPath>
</defs>
</svg>
