<svg width="108" height="108" viewBox="0 0 108 108" fill="none" xmlns="http://www.w3.org/2000/svg">
<rect width="108" height="108" fill="white"/>
<g clip-path="url(#clip0_29_28)">
<path d="M92.9971 33.3007V14.0051L73.5603 14.0051V33.3007H92.9971Z" fill="#38EF7D"/>
<path d="M86.517 26.8805V20.4399H80.0293V26.8805H86.517Z" fill="#212121"/>
<path d="M86.5188 91.0031V84.5626H80.0311V91.0031H86.5188Z" fill="#212121"/>
<path d="M22.4897 26.8681V20.4276H16.0021V26.8681H22.4897Z" fill="#212121"/>
<path d="M80.0378 33.2956V71.8736H35.5023V26.8681H76.9578V20.4406H35.5023H33.6936H29.0278V71.8736V78.3011H86.5124V71.8736V33.2956H80.0378Z" fill="#212121"/>
<path d="M67.0363 46.1505H54.9391V52.578H67.0363V65.433H73.5108V52.578V46.1505H67.0363Z" fill="#212121"/>
<path fill-rule="evenodd" clip-rule="evenodd" d="M48.4728 65.4301V33.2926H41.9982V65.4301H48.4728ZM48.4779 65.439H60.562V59.0115H48.4779V65.439ZM73.5113 39.7277H48.4781V33.3002H73.5113V39.7277Z" fill="#212121"/>
<path d="M22.4877 84.5725V33.2955H16.0131V91H22.4877H73.5108V84.5725H22.4877Z" fill="#212121"/>
</g>
<defs>
<clipPath id="clip0_29_28">
<rect width="77" height="77" fill="white" transform="translate(16 14)"/>
</clipPath>
</defs>
</svg>
